<svg width="60" height="60" viewBox="0 0 60 60" fill="none" xmlns="http://www.w3.org/2000/svg">
<g clip-path="url(#clip0_3974_2822)">
<mask id="mask0_3974_2822" style="mask-type:alpha" maskUnits="userSpaceOnUse" x="0" y="0" width="60" height="60">
<path d="M0 20.8C0 13.5193 0 9.87898 1.41692 7.09812C2.66327 4.65202 4.65202 2.66327 7.09812 1.41692C9.87898 0 13.5193 0 20.8 0H39.2C46.4807 0 50.121 0 52.9019 1.41692C55.348 2.66327 57.3367 4.65202 58.5831 7.09812C60 9.87898 60 13.5193 60 20.8V39.2C60 46.4807 60 50.121 58.5831 52.9019C57.3367 55.348 55.348 57.3367 52.9019 58.5831C50.121 60 46.4807 60 39.2 60H20.8C13.5193 60 9.87898 60 7.09812 58.5831C4.65202 57.3367 2.66327 55.348 1.41692 52.9019C0 50.121 0 46.4807 0 39.2V20.8Z" fill="white"/>
</mask>
<g mask="url(#mask0_3974_2822)">
<rect width="60" height="60" fill="black"/>
</g>
<path d="M17.6633 50.8L26.1543 50.2371L29.4872 29.2033H30.3622L33.617 49.7411L42.6235 49.1419L49.8493 9H41.2107L37.9085 39.6255L36.8997 39.6923L33.408 17.6387H26.4413L22.8019 40.6287L21.7988 40.6955L18.6805 17.6387H10L17.6633 50.8Z" fill="#FF0558"/>
</g>
<defs>
<clipPath id="clip0_3974_2822">
<rect width="60" height="60" fill="white"/>
</clipPath>
</defs>
</svg>
